<svg width="23" height="25" viewBox="0 0 23 25" fill="none" xmlns="http://www.w3.org/2000/svg">
<path d="M1.71429 22.7143V18.8571H5.57143V22.7143H1.71429ZM6.42857 22.7143V18.8571H10.7143V22.7143H6.42857ZM1.71429 18V13.7143H5.57143V18H1.71429ZM6.42857 18V13.7143H10.7143V18H6.42857ZM1.71429 12.8571V9H5.57143V12.8571H1.71429ZM11.5714 22.7143V18.8571H15.8571V22.7143H11.5714ZM6.42857 12.8571V9H10.7143V12.8571H6.42857ZM16.7143 22.7143V18.8571H20.5714V22.7143H16.7143ZM11.5714 18V13.7143H15.8571V18H11.5714ZM6.85714 6.42857C6.85714 6.65625 6.65625 6.85714 6.42857 6.85714H5.57143C5.34375 6.85714 5.14286 6.65625 5.14286 6.42857V2.57143C5.14286 2.34375 5.34375 2.14286 5.57143 2.14286H6.42857C6.65625 2.14286 6.85714 2.34375 6.85714 2.57143V6.42857ZM16.7143 18V13.7143H20.5714V18H16.7143ZM11.5714 12.8571V9H15.8571V12.8571H11.5714ZM16.7143 12.8571V9H20.5714V12.8571H16.7143ZM17.1429 6.42857C17.1429 6.65625 16.942 6.85714 16.7143 6.85714H15.8571C15.6295 6.85714 15.4286 6.65625 15.4286 6.42857V2.57143C15.4286 2.34375 15.6295 2.14286 15.8571 2.14286H16.7143C16.942 2.14286 17.1429 2.34375 17.1429 2.57143V6.42857ZM22.2857 5.57143C22.2857 4.63393 21.5089 3.85714 20.5714 3.85714H18.8571V2.57143C18.8571 1.39286 17.8929 0.42857 16.7143 0.42857H15.8571C14.6786 0.42857 13.7143 1.39286 13.7143 2.57143V3.85714H8.57143V2.57143C8.57143 1.39286 7.60714 0.42857 6.42857 0.42857H5.57143C4.39286 0.42857 3.42857 1.39286 3.42857 2.57143V3.85714H1.71429C0.776786 3.85714 0 4.63393 0 5.57143V22.7143C0 23.6518 0.776786 24.4286 1.71429 24.4286H20.5714C21.5089 24.4286 22.2857 23.6518 22.2857 22.7143V5.57143Z" fill="black"/>
</svg>
