<svg width="52" height="52" viewBox="0 0 52 52" fill="none" xmlns="http://www.w3.org/2000/svg">
<path d="M42.25 20.3125C44.9424 20.3125 47.125 18.1299 47.125 15.4375C47.125 12.7451 44.9424 10.5625 42.25 10.5625C39.5576 10.5625 37.375 12.7451 37.375 15.4375C37.375 18.1299 39.5576 20.3125 42.25 20.3125Z" fill="#FF601B"/>
<path d="M42.25 22.1912C41.7016 22.1912 41.1734 22.1201 40.6656 21.9982L35.8516 26.9037C35.7703 26.9849 35.7703 27.1068 35.8516 27.1881L43.4992 35.3334C44.0172 35.8513 44.0172 36.6842 43.4992 37.2021C43.2453 37.456 42.9 37.5881 42.5648 37.5881C42.2297 37.5881 41.8844 37.456 41.6305 37.2021L34.0133 29.0873C33.932 29.006 33.8 29.006 33.7188 29.0873L31.8602 30.9763C30.3063 32.5506 28.2445 33.424 26.0305 33.4342C23.7859 33.4443 21.6531 32.4998 20.0789 30.9052L18.2914 29.0873C18.2102 29.006 18.0781 29.006 17.9969 29.0873L10.3797 37.2021C10.1258 37.456 9.78047 37.5881 9.44531 37.5881C9.11016 37.5881 8.76484 37.456 8.51094 37.2021C7.99297 36.6842 7.99297 35.8513 8.51094 35.3334L16.1586 27.1881C16.2297 27.1068 16.2297 26.9849 16.1586 26.9037L5.22031 15.7724C5.08828 15.6404 4.875 15.7318 4.875 15.9146V38.1873C4.875 39.9748 6.3375 41.4373 8.125 41.4373H43.875C45.6625 41.4373 47.125 39.9748 47.125 38.1873V20.1091C45.8961 21.3888 44.1695 22.1912 42.25 22.1912Z" fill="#FF601B"/>
<path d="M35.4961 15.4375C35.4961 14.2594 35.8008 13.1523 36.3289 12.1875H8.11485C7.35313 12.1875 6.65235 12.4516 6.10391 12.8984L22.0391 29.118C23.0953 30.1945 24.507 30.7836 26.0102 30.7836C27.5133 30.7836 28.925 30.1945 29.9813 29.118L38.157 20.8C36.532 19.5609 35.4961 17.6211 35.4961 15.4375Z" fill="#FF601B"/>
</svg>
