<svg width="52" height="52" viewBox="0 0 52 52" fill="none" xmlns="http://www.w3.org/2000/svg">
<path d="M44.3727 37.0503C42.8797 35.5574 39.2945 33.3128 37.5274 32.4699C35.4758 31.4847 34.7242 31.505 33.2719 32.5511C32.0633 33.4245 31.2813 34.237 29.8899 33.9324C28.4984 33.6378 25.7563 31.5558 23.0953 28.905C20.4344 26.2441 18.3625 23.5019 18.068 22.1105C17.7734 20.7089 18.5859 19.937 19.4492 18.7284C20.4953 17.2761 20.5258 16.5245 19.5305 14.473C18.6875 12.6956 16.4531 9.12063 14.95 7.62767C13.457 6.1347 13.1219 6.4597 12.2992 6.75423C12.2992 6.75423 11.0805 7.24173 9.87188 8.04407C8.37891 9.03938 7.5461 9.8722 6.95704 11.1214C6.37813 12.3706 5.70782 14.6964 9.12032 20.7699C11.8727 25.6753 14.5742 29.3925 18.5859 33.3941L18.5961 33.4042L18.6063 33.4144C22.618 37.4261 26.325 40.1277 31.2305 42.88C37.3039 46.2925 39.6297 45.6222 40.8789 45.0433C42.1281 44.4644 42.961 43.6316 43.9563 42.1284C44.7586 40.9199 45.2461 39.7011 45.2461 39.7011C45.5406 38.8784 45.8758 38.5433 44.3727 37.0503Z" fill="#FF601B"/>
</svg>
