<svg width="28" height="28" viewBox="0 0 28 28" fill="none" xmlns="http://www.w3.org/2000/svg">
<path d="M13.6099 0C9.93464 0 9.46895 0.0125863 8.03409 0.0755185C6.58665 0.138451 5.60491 0.365007 4.74903 0.704841C3.85539 1.04467 3.1002 1.51037 2.3576 2.26556C1.615 3.02075 1.13672 3.77593 0.796882 4.65699C0.457048 5.51286 0.230492 6.50719 0.16756 7.94205C0.104628 9.38949 0.092041 9.8426 0.092041 13.5178C0.092041 17.1931 0.104628 17.6588 0.16756 19.0936C0.230492 20.5285 0.457048 21.5228 0.796882 22.3787C1.13672 23.2723 1.60241 24.0275 2.3576 24.7701C3.11279 25.5253 3.86798 25.991 4.74903 26.3309C5.60491 26.6707 6.59924 26.8972 8.03409 26.9602C9.48153 27.0231 9.93464 27.0357 13.6099 27.0357C17.2851 27.0357 17.7508 27.0231 19.1857 26.9602C20.6205 26.8972 21.6149 26.6707 22.4708 26.3309C23.3644 25.991 24.1196 25.5253 24.8622 24.7701C25.6174 24.0149 26.0831 23.2598 26.4229 22.3787C26.7627 21.5228 26.9893 20.5285 27.0522 19.0936C27.1151 17.6462 27.1277 17.1931 27.1277 13.5178C27.1277 9.8426 27.1151 9.3769 27.0522 7.94205C26.9893 6.50719 26.7627 5.51286 26.4229 4.65699C26.0831 3.76335 25.6174 3.00816 24.8622 2.26556C24.107 1.51037 23.3518 1.04467 22.4708 0.704841C21.6149 0.365007 20.6205 0.138451 19.1857 0.0755185C17.7382 0.0125863 17.2851 0 13.6099 0ZM13.6099 2.42918C17.2222 2.42918 17.6501 2.44177 19.0724 2.5047C20.394 2.56764 21.1114 2.7816 21.5897 2.9704C22.219 3.20954 22.6721 3.51162 23.1504 3.97732C23.6287 4.4556 23.9182 4.89613 24.1573 5.53804C24.3461 6.01632 24.5601 6.73375 24.623 8.05533C24.686 9.4776 24.6986 9.90553 24.6986 13.5178C24.6986 17.1302 24.686 17.5581 24.623 18.9804C24.5601 20.3019 24.3461 21.0194 24.1573 21.4977C23.9182 22.127 23.6161 22.5801 23.1504 23.0584C22.6721 23.5367 22.2316 23.8261 21.5897 24.0653C21.1114 24.2541 20.394 24.4681 19.0724 24.531C17.6501 24.5939 17.2222 24.6065 13.6099 24.6065C9.99758 24.6065 9.56964 24.5939 8.14737 24.531C6.82579 24.4681 6.10836 24.2541 5.63008 24.0653C5.00076 23.8261 4.54764 23.5241 4.06936 23.0584C3.59107 22.5801 3.30159 22.1396 3.06244 21.4977C2.87365 21.0194 2.65968 20.3019 2.59674 18.9804C2.53381 17.5581 2.52123 17.1302 2.52123 13.5178C2.52123 9.90553 2.53381 9.4776 2.59674 8.05533C2.65968 6.73375 2.87365 6.01632 3.06244 5.53804C3.30159 4.90871 3.60366 4.4556 4.06936 3.97732C4.54764 3.49903 4.98817 3.20954 5.63008 2.9704C6.10836 2.7816 6.82579 2.56764 8.14737 2.5047C9.56964 2.44177 9.99758 2.42918 13.6099 2.42918Z" fill="#F5F9FC"/>
<path d="M13.6098 18.0367C11.1177 18.0367 9.10388 16.0228 9.10388 13.5307C9.10388 11.0386 11.1177 9.02478 13.6098 9.02478C16.1019 9.02478 18.1158 11.0386 18.1158 13.5307C18.1158 16.0103 16.1019 18.0367 13.6098 18.0367ZM13.6098 6.58301C9.77096 6.58301 6.66211 9.69186 6.66211 13.5181C6.66211 17.357 9.77096 20.4659 13.6098 20.4659C17.4487 20.4659 20.5575 17.357 20.5575 13.5181C20.5575 9.69186 17.4487 6.58301 13.6098 6.58301Z" fill="#F5F9FC"/>
<path d="M22.4581 6.30578C22.4581 7.19942 21.7281 7.92943 20.8345 7.92943C19.9408 7.92943 19.2108 7.19942 19.2108 6.30578C19.2108 5.41214 19.9408 4.68213 20.8345 4.68213C21.7281 4.68213 22.4581 5.39956 22.4581 6.30578Z" fill="#F5F9FC"/>
</svg>
