<svg width="35" height="26" viewBox="0 0 35 26" fill="none" xmlns="http://www.w3.org/2000/svg">
<path d="M11.0008 26C24.2181 26 31.4425 16 31.4425 7.325C31.4425 7.0375 31.4425 6.7625 31.4152 6.475C32.8245 5.55 34.0422 4.4 35 3.075C33.6865 3.6 32.2909 3.95 30.8679 4.1125C32.3729 3.2875 33.4949 2 34.0285 0.475C32.6192 1.2375 31.0731 1.775 29.4586 2.0625C28.1177 0.75 26.2295 0 24.2455 0C20.3049 0 17.0485 2.9625 17.0485 6.575C17.0485 7.075 17.1169 7.575 17.24 8.0625C11.466 7.7875 6.07506 5.3 2.42181 1.2C0.53362 4.175 1.50508 8.05 4.65207 9.9625C3.50274 9.9375 2.39445 9.65 1.39562 9.1375V9.225C1.39562 12.3375 3.81744 15.05 7.15598 15.6625C6.10242 15.925 4.99414 15.9625 3.91321 15.775C4.85731 18.4375 7.56646 20.2875 10.6314 20.3375C8.0864 22.1625 4.93941 23.1625 1.71032 23.15C1.13565 23.15 0.560985 23.1125 0 23.05C3.27013 24.975 7.10125 26 11.0008 26Z" fill="#F5F9FC"/>
</svg>
