<svg width="29" height="29" viewBox="0 0 29 29" fill="none" xmlns="http://www.w3.org/2000/svg">
<path d="M14.5 0C6.49102 0 0 6.49102 0 14.5C0 22.509 6.49102 29 14.5 29C22.4863 29 29 22.509 29 14.5C29 6.49102 22.4863 0 14.5 0ZM24.0723 6.68359C25.8055 8.79062 26.8363 11.4754 26.8703 14.3867C26.4625 14.3074 22.373 13.4691 18.2496 13.9902C18.159 13.7863 18.0797 13.5598 17.9777 13.3445C17.7285 12.7441 17.4453 12.1324 17.1621 11.5547C21.7387 9.7082 23.8117 7.03477 24.0723 6.68359ZM14.5 2.14102C17.6492 2.14102 20.5266 3.31914 22.7129 5.25625C22.4977 5.57344 20.6172 8.06563 16.2219 9.71953C14.1941 5.99258 11.9398 2.94531 11.6 2.46953C12.5176 2.2543 13.4918 2.14102 14.5 2.14102ZM9.23242 3.30781C9.56094 3.74961 11.7699 6.81953 13.8203 10.4672C8.03164 11.9965 2.92266 11.9625 2.37891 11.9625C3.17188 8.13359 5.76602 4.93906 9.23242 3.30781ZM2.10703 14.5113V14.1375C2.63945 14.1488 8.65469 14.2281 14.8285 12.3816C15.191 13.0727 15.5195 13.7863 15.8367 14.4887C15.6781 14.534 15.5082 14.5793 15.3496 14.6246C8.96055 16.6863 5.56211 22.3164 5.29023 22.7922C3.31914 20.6059 2.10703 17.6945 2.10703 14.5113ZM14.5 26.893C11.634 26.893 8.99453 25.9187 6.89883 24.2875C7.11406 23.8344 9.64023 18.9859 16.6184 16.5504C16.6523 16.5391 16.6637 16.5391 16.6977 16.5164C18.4422 21.025 19.1559 24.8199 19.3371 25.9074C17.8531 26.5418 16.2105 26.893 14.5 26.893ZM21.3988 24.7746C21.2742 24.0156 20.6172 20.402 18.9973 15.95C22.8828 15.3383 26.2812 16.3465 26.7004 16.4824C26.168 19.9262 24.1855 22.8941 21.3988 24.7746Z" fill="#F5F9FC"/>
</svg>
